<svg version="1.1" xmlns="http://www.w3.org/2000/svg" viewBox="0 0 97.4507682366825 104.12541132412753" width="292.3523047100475" height="312.3762339723826">
  <!-- svg-source:excalidraw -->
  
  <defs>
    <style class="style-fonts">
      
    </style>
    
  </defs>
  <rect x="0" y="0" width="97.4507682366825" height="104.12541132412753" fill="#ffffff"></rect><g stroke-linecap="round" transform="translate(10 10.000000000000114) rotate(0 38.72538411834125 42.062705662063706)"><path d="M26.08 2.2 C32.2 -0.84, 41.85 -0.32, 48.66 1.33 C55.46 2.99, 62.14 6.68, 66.91 12.14 C71.67 17.59, 76.02 26.63, 77.25 34.08 C78.49 41.52, 76.99 49.73, 74.32 56.81 C71.64 63.9, 66.67 72.08, 61.19 76.59 C55.71 81.1, 48.47 83.72, 41.42 83.89 C34.36 84.07, 25.12 81.41, 18.87 77.62 C12.61 73.84, 6.97 67.75, 3.88 61.16 C0.79 54.57, -0.41 45.65, 0.35 38.07 C1.1 30.49, 3.99 21.62, 8.39 15.68 C12.8 9.75, 23.25 4.61, 26.78 2.46 C30.31 0.31, 29.2 2.13, 29.59 2.78 M33.79 0.63 C40.45 -0.61, 51.3 1.43, 57.6 4.69 C63.89 7.95, 68.25 13.7, 71.55 20.17 C74.84 26.63, 77.35 35.63, 77.36 43.47 C77.38 51.32, 75.49 60.91, 71.64 67.24 C67.8 73.57, 61.03 78.98, 54.31 81.45 C47.59 83.93, 38.4 83.77, 31.32 82.09 C24.24 80.4, 16.98 76.32, 11.85 71.36 C6.71 66.4, 1.93 59.28, 0.53 52.32 C-0.87 45.36, 0.96 37.04, 3.43 29.58 C5.9 22.13, 10.28 12.68, 15.36 7.6 C20.43 2.51, 30.82 0.04, 33.87 -0.94 C36.92 -1.91, 33.57 0.95, 33.64 1.74" stroke="#1e1e1e" stroke-width="2" fill="none"></path></g><g transform="translate(29.48448443532493 44.97515552360426) rotate(3.7307046225617295 0.00004999999998744897 0.00004999999998744897)" stroke="none"><path fill="#1e1e1e" d="M 1.57,-1.57 Q 1.57,-1.57 1.77,-1.27 1.98,-0.98 2.09,-0.64 2.20,-0.29 2.19,0.05 2.18,0.41 2.05,0.75 1.93,1.09 1.70,1.37 1.48,1.65 1.18,1.84 0.87,2.04 0.52,2.12 0.18,2.21 -0.17,2.18 -0.53,2.15 -0.86,2.01 -1.19,1.87 -1.46,1.63 -1.73,1.39 -1.90,1.07 -2.08,0.76 -2.15,0.41 -2.21,0.05 -2.17,-0.29 -2.12,-0.65 -1.96,-0.97 -1.80,-1.29 -1.54,-1.54 -1.29,-1.80 -0.97,-1.96 -0.65,-2.12 -0.29,-2.17 0.06,-2.21 0.41,-2.15 0.76,-2.08 1.07,-1.90 1.39,-1.73 1.63,-1.46 1.87,-1.19 2.01,-0.86 2.15,-0.53 2.18,-0.17 2.21,0.18 2.12,0.52 2.03,0.87 1.84,1.18 1.65,1.48 1.37,1.70 1.09,1.93 0.75,2.05 0.41,2.18 0.05,2.19 -0.30,2.20 -0.64,2.09 -0.98,1.98 -1.27,1.77 -1.57,1.56 -1.57,1.57 -1.57,1.57 -1.73,1.35 -1.90,1.14 -2.01,0.90 -2.12,0.66 -2.16,0.39 -2.21,0.13 -2.20,-0.13 -2.18,-0.40 -2.10,-0.65 -2.02,-0.91 -1.88,-1.14 -1.74,-1.36 -1.55,-1.55 -1.36,-1.74 -1.14,-1.88 -0.91,-2.02 -0.65,-2.10 -0.40,-2.18 -0.13,-2.20 0.13,-2.21 0.39,-2.16 0.66,-2.12 0.90,-2.01 1.14,-1.90 1.35,-1.73 1.57,-1.57 1.57,-1.57 L 1.57,-1.57 Z"></path></g><g transform="translate(60.354118524167234 43.69816213078741) rotate(3.7307046225617295 0.00004999999998744897 0.00004999999998744897)" stroke="none"><path fill="#1e1e1e" d="M 1.57,-1.57 Q 1.57,-1.57 1.77,-1.27 1.98,-0.98 2.09,-0.64 2.20,-0.29 2.19,0.05 2.18,0.41 2.05,0.75 1.93,1.09 1.70,1.37 1.48,1.65 1.18,1.84 0.87,2.04 0.52,2.12 0.18,2.21 -0.17,2.18 -0.53,2.15 -0.86,2.01 -1.19,1.87 -1.46,1.63 -1.73,1.39 -1.90,1.07 -2.08,0.76 -2.15,0.41 -2.21,0.05 -2.17,-0.29 -2.12,-0.65 -1.96,-0.97 -1.80,-1.29 -1.54,-1.54 -1.29,-1.80 -0.97,-1.96 -0.65,-2.12 -0.29,-2.17 0.06,-2.21 0.41,-2.15 0.76,-2.08 1.07,-1.90 1.39,-1.73 1.63,-1.46 1.87,-1.19 2.01,-0.86 2.15,-0.53 2.18,-0.17 2.21,0.18 2.12,0.52 2.03,0.87 1.84,1.18 1.65,1.48 1.37,1.70 1.09,1.93 0.75,2.05 0.41,2.18 0.05,2.19 -0.30,2.20 -0.64,2.09 -0.98,1.98 -1.27,1.77 -1.57,1.56 -1.57,1.57 -1.57,1.57 -1.73,1.35 -1.90,1.14 -2.01,0.90 -2.12,0.66 -2.16,0.39 -2.21,0.13 -2.20,-0.13 -2.18,-0.40 -2.10,-0.65 -2.02,-0.91 -1.88,-1.14 -1.74,-1.36 -1.55,-1.55 -1.36,-1.74 -1.14,-1.88 -0.91,-2.02 -0.65,-2.10 -0.40,-2.18 -0.13,-2.20 0.13,-2.21 0.39,-2.16 0.66,-2.12 0.90,-2.01 1.14,-1.90 1.35,-1.73 1.57,-1.57 1.57,-1.57 L 1.57,-1.57 Z"></path></g><g stroke-linecap="round"><g transform="translate(33.20210279886055 64.93082331611288) rotate(3.7307046225617295 10.264069495490503 1.1661879284665133)"><path d="M0 0 C1.7 0.52, 6.79 3.25, 10.22 3.12 C13.64 2.99, 18.81 -0.14, 20.53 -0.79 M0 0 C1.7 0.52, 6.79 3.25, 10.22 3.12 C13.64 2.99, 18.81 -0.14, 20.53 -0.79" stroke="#1e1e1e" stroke-width="4" fill="none"></path></g></g><mask></mask></svg>